<svg xmlns="http://www.w3.org/2000/svg" xmlns:xlink="http://www.w3.org/1999/xlink" width="500" zoomAndPan="magnify" viewBox="0 0 375 374.999991" height="500" preserveAspectRatio="xMidYMid meet" version="1.0"><defs><g/></defs><g fill="#000000" fill-opacity="1"><g transform="translate(118.005704, 213.463326)"><g><path d="M 0 1.4375 L 49.15625 1.4375 L 49.15625 9.578125 L 0 9.578125 Z M 0 1.4375 "/></g></g></g><g fill="#000000" fill-opacity="1"><g transform="translate(158.145646, 213.463326)"><g><path d="M 5.75 0 L 5.75 -82.40625 L 22.71875 -82.40625 L 22.71875 0 Z M 5.75 0 "/></g></g></g><g fill="#000000" fill-opacity="1"><g transform="translate(177.591561, 213.463326)"><g><path d="M 10.390625 -5.84375 C 4.929688 -10.695312 2.203125 -16.925781 2.203125 -24.53125 C 2.203125 -32.132812 5.046875 -38.378906 10.734375 -43.265625 C 16.421875 -48.148438 23.445312 -50.59375 31.8125 -50.59375 C 40.050781 -50.59375 47 -48.132812 52.65625 -43.21875 C 58.3125 -38.300781 61.140625 -32.070312 61.140625 -24.53125 C 61.140625 -16.988281 58.375 -10.773438 52.84375 -5.890625 C 47.320312 -1.003906 40.3125 1.4375 31.8125 1.4375 C 23 1.4375 15.859375 -0.988281 10.390625 -5.84375 Z M 23.515625 -32.859375 C 21.316406 -30.691406 20.21875 -27.914062 20.21875 -24.53125 C 20.21875 -21.144531 21.269531 -18.378906 23.375 -16.234375 C 25.488281 -14.097656 28.269531 -13.03125 31.71875 -13.03125 C 35.039062 -13.03125 37.769531 -14.113281 39.90625 -16.28125 C 42.050781 -18.457031 43.125 -21.207031 43.125 -24.53125 C 43.125 -27.914062 42.019531 -30.691406 39.8125 -32.859375 C 37.613281 -35.035156 34.914062 -36.125 31.71875 -36.125 C 28.457031 -36.125 25.722656 -35.035156 23.515625 -32.859375 Z M 23.515625 -32.859375 "/></g></g></g><g fill="#000000" fill-opacity="1"><g transform="translate(231.910736, 213.463326)"><g><path d="M 3.546875 12.078125 L 17.4375 5.265625 C 20 9.484375 24.441406 11.59375 30.765625 11.59375 C 33.703125 11.59375 36.429688 10.648438 38.953125 8.765625 C 41.472656 6.878906 42.734375 3.988281 42.734375 0.09375 L 42.734375 -3.546875 C 39.734375 -0.222656 34.367188 1.4375 26.640625 1.4375 C 19.546875 1.4375 13.695312 -1.066406 9.09375 -6.078125 C 4.5 -11.097656 2.203125 -17.25 2.203125 -24.53125 C 2.203125 -31.8125 4.5 -37.972656 9.09375 -43.015625 C 13.695312 -48.066406 19.546875 -50.59375 26.640625 -50.59375 C 32.960938 -50.59375 38.234375 -48.644531 42.453125 -44.75 L 42.734375 -44.75 L 42.734375 -49.15625 L 59.703125 -49.15625 L 59.703125 1.34375 C 59.703125 9.320312 57.050781 15.484375 51.75 19.828125 C 46.445312 24.179688 39.453125 26.359375 30.765625 26.359375 C 16.703125 26.359375 7.628906 21.597656 3.546875 12.078125 Z M 23.515625 -32.859375 C 21.316406 -30.691406 20.21875 -27.914062 20.21875 -24.53125 C 20.21875 -21.144531 21.269531 -18.378906 23.375 -16.234375 C 25.488281 -14.097656 28.269531 -13.03125 31.71875 -13.03125 C 35.039062 -13.03125 37.769531 -14.113281 39.90625 -16.28125 C 42.050781 -18.457031 43.125 -21.207031 43.125 -24.53125 C 43.125 -27.914062 42.019531 -30.691406 39.8125 -32.859375 C 37.613281 -35.035156 34.914062 -36.125 31.71875 -36.125 C 28.457031 -36.125 25.722656 -35.035156 23.515625 -32.859375 Z M 23.515625 -32.859375 "/></g></g></g><g fill="#000000" fill-opacity="1"><g transform="translate(288.337638, 213.463326)"><g><path d="M 8.625 -49.15625 L 8.625 -67.46875 L 25.59375 -67.46875 L 25.59375 -49.15625 L 35.9375 -49.15625 L 35.9375 -36.21875 L 25.59375 -36.21875 L 25.59375 -20.609375 C 25.59375 -16.066406 26.867188 -13.796875 29.421875 -13.796875 C 30.054688 -13.796875 30.722656 -13.921875 31.421875 -14.171875 C 32.128906 -14.429688 32.675781 -14.691406 33.0625 -14.953125 L 33.640625 -15.328125 L 37.859375 -1.625 C 34.210938 0.414062 30.054688 1.4375 25.390625 1.4375 C 22.203125 1.4375 19.457031 0.878906 17.15625 -0.234375 C 14.851562 -1.359375 13.109375 -2.863281 11.921875 -4.75 C 10.742188 -6.632812 9.898438 -8.613281 9.390625 -10.6875 C 8.878906 -12.757812 8.625 -14.976562 8.625 -17.34375 L 8.625 -36.21875 L 1.53125 -36.21875 L 1.53125 -49.15625 Z M 8.625 -49.15625 "/></g></g></g><g fill="#000000" fill-opacity="1"><g transform="translate(317.172512, 213.463326)"><g/></g></g><g fill="#000000" fill-opacity="1"><g transform="translate(334.319093, 213.463326)"><g><path d="M 16.671875 -20.5 C 19.742188 -20.5 22.347656 -19.429688 24.484375 -17.296875 C 26.617188 -15.160156 27.6875 -12.554688 27.6875 -9.484375 C 27.6875 -6.484375 26.617188 -3.910156 24.484375 -1.765625 C 22.347656 0.367188 19.742188 1.4375 16.671875 1.4375 C 13.671875 1.4375 11.097656 0.367188 8.953125 -1.765625 C 6.816406 -3.910156 5.75 -6.484375 5.75 -9.484375 C 5.75 -12.554688 6.816406 -15.160156 8.953125 -17.296875 C 11.097656 -19.429688 13.671875 -20.5 16.671875 -20.5 Z M 16.671875 -20.5 "/></g></g></g><g fill="#000000" fill-opacity="1"><g transform="translate(36.174021, 181.555151)"><g><path d="M 11.609375 -2.296875 C 11.953125 -2.296875 12.234375 -2.1875 12.453125 -1.96875 C 12.679688 -1.757812 12.796875 -1.484375 12.796875 -1.140625 C 12.796875 -0.804688 12.679688 -0.53125 12.453125 -0.3125 C 12.234375 -0.101562 11.953125 0 11.609375 0 L 3.25 0 C 2.894531 0 2.601562 -0.113281 2.375 -0.34375 C 2.15625 -0.570312 2.046875 -0.851562 2.046875 -1.1875 L 2.046875 -16.140625 C 2.046875 -16.460938 2.160156 -16.738281 2.390625 -16.96875 C 2.628906 -17.207031 2.929688 -17.328125 3.296875 -17.328125 C 3.617188 -17.328125 3.898438 -17.207031 4.140625 -16.96875 C 4.378906 -16.738281 4.5 -16.460938 4.5 -16.140625 L 4.5 -2.296875 Z M 11.609375 -2.296875 "/></g></g></g><g fill="#000000" fill-opacity="1"><g transform="translate(62.503675, 181.555151)"><g><path d="M 3.984375 -1.1875 C 3.984375 -0.851562 3.867188 -0.570312 3.640625 -0.34375 C 3.421875 -0.113281 3.140625 0 2.796875 0 C 2.460938 0 2.1875 -0.113281 1.96875 -0.34375 C 1.75 -0.570312 1.640625 -0.851562 1.640625 -1.1875 L 1.640625 -11.90625 C 1.640625 -12.238281 1.75 -12.519531 1.96875 -12.75 C 2.1875 -12.976562 2.460938 -13.09375 2.796875 -13.09375 C 3.140625 -13.09375 3.421875 -12.976562 3.640625 -12.75 C 3.867188 -12.519531 3.984375 -12.238281 3.984375 -11.90625 Z M 2.796875 -14.71875 C 2.316406 -14.71875 1.972656 -14.804688 1.765625 -14.984375 C 1.566406 -15.160156 1.46875 -15.4375 1.46875 -15.8125 L 1.46875 -16.21875 C 1.46875 -16.613281 1.578125 -16.890625 1.796875 -17.046875 C 2.015625 -17.210938 2.359375 -17.296875 2.828125 -17.296875 C 3.285156 -17.296875 3.617188 -17.207031 3.828125 -17.03125 C 4.035156 -16.863281 4.140625 -16.59375 4.140625 -16.21875 L 4.140625 -15.8125 C 4.140625 -15.414062 4.03125 -15.132812 3.8125 -14.96875 C 3.601562 -14.800781 3.265625 -14.71875 2.796875 -14.71875 Z M 2.796875 -14.71875 "/></g></g></g><g fill="#000000" fill-opacity="1"><g transform="translate(80.843777, 181.555151)"><g><path d="M 9.96875 -2.171875 C 10.28125 -2.171875 10.546875 -2.066406 10.765625 -1.859375 C 10.984375 -1.660156 11.09375 -1.40625 11.09375 -1.09375 C 11.09375 -0.78125 10.984375 -0.519531 10.765625 -0.3125 C 10.546875 -0.101562 10.28125 0 9.96875 0 L 1.984375 0 C 1.671875 0 1.410156 -0.113281 1.203125 -0.34375 C 0.992188 -0.570312 0.890625 -0.8125 0.890625 -1.0625 C 0.910156 -1.28125 0.941406 -1.457031 0.984375 -1.59375 C 1.035156 -1.738281 1.128906 -1.898438 1.265625 -2.078125 L 7.75 -10.734375 L 2.375 -10.734375 C 2.0625 -10.734375 1.796875 -10.84375 1.578125 -11.0625 C 1.367188 -11.28125 1.265625 -11.546875 1.265625 -11.859375 C 1.265625 -12.171875 1.363281 -12.425781 1.5625 -12.625 C 1.769531 -12.820312 2.039062 -12.921875 2.375 -12.921875 L 9.96875 -12.921875 C 10.28125 -12.921875 10.539062 -12.800781 10.75 -12.5625 C 10.957031 -12.332031 11.050781 -12.054688 11.03125 -11.734375 C 11.019531 -11.566406 10.992188 -11.421875 10.953125 -11.296875 C 10.910156 -11.171875 10.820312 -11.035156 10.6875 -10.890625 L 4.15625 -2.171875 Z M 9.96875 -2.171875 "/></g></g></g><g fill="#000000" fill-opacity="1"><g transform="translate(105.491428, 181.555151)"><g><path d="M 9.96875 -2.171875 C 10.28125 -2.171875 10.546875 -2.066406 10.765625 -1.859375 C 10.984375 -1.660156 11.09375 -1.40625 11.09375 -1.09375 C 11.09375 -0.78125 10.984375 -0.519531 10.765625 -0.3125 C 10.546875 -0.101562 10.28125 0 9.96875 0 L 1.984375 0 C 1.671875 0 1.410156 -0.113281 1.203125 -0.34375 C 0.992188 -0.570312 0.890625 -0.8125 0.890625 -1.0625 C 0.910156 -1.28125 0.941406 -1.457031 0.984375 -1.59375 C 1.035156 -1.738281 1.128906 -1.898438 1.265625 -2.078125 L 7.75 -10.734375 L 2.375 -10.734375 C 2.0625 -10.734375 1.796875 -10.84375 1.578125 -11.0625 C 1.367188 -11.28125 1.265625 -11.546875 1.265625 -11.859375 C 1.265625 -12.171875 1.363281 -12.425781 1.5625 -12.625 C 1.769531 -12.820312 2.039062 -12.921875 2.375 -12.921875 L 9.96875 -12.921875 C 10.28125 -12.921875 10.539062 -12.800781 10.75 -12.5625 C 10.957031 -12.332031 11.050781 -12.054688 11.03125 -11.734375 C 11.019531 -11.566406 10.992188 -11.421875 10.953125 -11.296875 C 10.910156 -11.171875 10.820312 -11.035156 10.6875 -10.890625 L 4.15625 -2.171875 Z M 9.96875 -2.171875 "/></g></g></g><g fill="#000000" fill-opacity="1"><g transform="translate(130.139073, 181.555151)"><g><path d="M 11.40625 -13.09375 C 11.75 -13.09375 12.03125 -12.976562 12.25 -12.75 C 12.476562 -12.519531 12.59375 -12.238281 12.59375 -11.90625 L 12.59375 -1.21875 C 12.59375 0.84375 12.023438 2.382812 10.890625 3.40625 C 9.753906 4.4375 8.253906 4.953125 6.390625 4.953125 C 5.773438 4.953125 5.171875 4.894531 4.578125 4.78125 C 3.984375 4.664062 3.5 4.507812 3.125 4.3125 C 2.507812 4.03125 2.203125 3.648438 2.203125 3.171875 C 2.203125 3.085938 2.21875 2.976562 2.25 2.84375 C 2.351562 2.5625 2.492188 2.347656 2.671875 2.203125 C 2.847656 2.054688 3.054688 1.984375 3.296875 1.984375 C 3.421875 1.984375 3.539062 2.003906 3.65625 2.046875 C 4.175781 2.285156 4.632812 2.46875 5.03125 2.59375 C 5.425781 2.726562 5.882812 2.796875 6.40625 2.796875 C 8.96875 2.796875 10.25 1.484375 10.25 -1.140625 L 10.25 -1.640625 C 9.800781 -1.046875 9.222656 -0.582031 8.515625 -0.25 C 7.816406 0.0820312 7.015625 0.25 6.109375 0.25 C 4.742188 0.25 3.675781 -0.1875 2.90625 -1.0625 C 2.132812 -1.9375 1.75 -3.082031 1.75 -4.5 L 1.75 -11.90625 C 1.75 -12.25 1.859375 -12.53125 2.078125 -12.75 C 2.296875 -12.976562 2.578125 -13.09375 2.921875 -13.09375 C 3.265625 -13.09375 3.546875 -12.976562 3.765625 -12.75 C 3.992188 -12.519531 4.109375 -12.238281 4.109375 -11.90625 L 4.109375 -5.125 C 4.109375 -4.03125 4.347656 -3.222656 4.828125 -2.703125 C 5.304688 -2.191406 6.03125 -1.9375 7 -1.9375 C 7.945312 -1.9375 8.722656 -2.234375 9.328125 -2.828125 C 9.941406 -3.421875 10.25 -4.1875 10.25 -5.125 L 10.25 -11.90625 C 10.25 -12.25 10.351562 -12.53125 10.5625 -12.75 C 10.78125 -12.976562 11.0625 -13.09375 11.40625 -13.09375 Z M 11.40625 -13.09375 "/></g></g></g></svg>