<svg xmlns="http://www.w3.org/2000/svg" xmlns:xlink="http://www.w3.org/1999/xlink" width="500" zoomAndPan="magnify" viewBox="0 0 375 374.999991" height="500" preserveAspectRatio="xMidYMid meet" version="1.0"><defs><g/><clipPath id="a1052be041"><path d="M 192 115.746094 L 320.785156 115.746094 L 320.785156 258.824219 L 192 258.824219 Z M 192 115.746094 " clip-rule="nonzero"/></clipPath><clipPath id="46e67e4296"><path d="M 190.890625 148 L 214 148 L 214 163 L 190.890625 163 Z M 190.890625 148 " clip-rule="nonzero"/></clipPath></defs><rect x="-37.5" width="450" fill="#ffffff" y="-37.499999" height="449.999989" fill-opacity="1"/><rect x="-37.5" width="450" fill="#ffffff" y="-37.499999" height="449.999989" fill-opacity="1"/><g fill="#000000" fill-opacity="1"><g transform="translate(99.239477, 238.919836)"><g><path d="M 0 0.9375 L 32.125 0.9375 L 32.125 6.265625 L 0 6.265625 Z M 0 0.9375 "/></g></g></g><g fill="#000000" fill-opacity="1"><g transform="translate(125.471921, 238.919836)"><g><path d="M 3.75 0 L 3.75 -53.859375 L 14.84375 -53.859375 L 14.84375 0 Z M 3.75 0 "/></g></g></g><g fill="#000000" fill-opacity="1"><g transform="translate(138.180306, 238.919836)"><g><path d="M 6.796875 -3.8125 C 3.222656 -6.988281 1.4375 -11.0625 1.4375 -16.03125 C 1.4375 -21 3.296875 -25.078125 7.015625 -28.265625 C 10.734375 -31.460938 15.328125 -33.0625 20.796875 -33.0625 C 26.179688 -33.0625 30.71875 -31.453125 34.40625 -28.234375 C 38.101562 -25.023438 39.953125 -20.957031 39.953125 -16.03125 C 39.953125 -11.101562 38.144531 -7.039062 34.53125 -3.84375 C 30.925781 -0.65625 26.347656 0.9375 20.796875 0.9375 C 15.035156 0.9375 10.367188 -0.644531 6.796875 -3.8125 Z M 15.375 -21.46875 C 13.9375 -20.050781 13.21875 -18.238281 13.21875 -16.03125 C 13.21875 -13.820312 13.90625 -12.015625 15.28125 -10.609375 C 16.65625 -9.210938 18.472656 -8.515625 20.734375 -8.515625 C 22.898438 -8.515625 24.679688 -9.222656 26.078125 -10.640625 C 27.484375 -12.066406 28.1875 -13.863281 28.1875 -16.03125 C 28.1875 -18.238281 27.460938 -20.050781 26.015625 -21.46875 C 24.578125 -22.894531 22.816406 -23.609375 20.734375 -23.609375 C 18.597656 -23.609375 16.8125 -22.894531 15.375 -21.46875 Z M 15.375 -21.46875 "/></g></g></g><g fill="#000000" fill-opacity="1"><g transform="translate(173.679227, 238.919836)"><g><path d="M 2.3125 7.890625 L 11.390625 3.4375 C 13.066406 6.195312 15.972656 7.578125 20.109375 7.578125 C 22.023438 7.578125 23.804688 6.957031 25.453125 5.71875 C 27.109375 4.488281 27.9375 2.601562 27.9375 0.0625 L 27.9375 -2.3125 C 25.96875 -0.144531 22.457031 0.9375 17.40625 0.9375 C 12.769531 0.9375 8.945312 -0.695312 5.9375 -3.96875 C 2.9375 -7.25 1.4375 -11.269531 1.4375 -16.03125 C 1.4375 -20.789062 2.9375 -24.816406 5.9375 -28.109375 C 8.945312 -31.410156 12.769531 -33.0625 17.40625 -33.0625 C 21.539062 -33.0625 24.988281 -31.789062 27.75 -29.25 L 27.9375 -29.25 L 27.9375 -32.125 L 39.015625 -32.125 L 39.015625 0.875 C 39.015625 6.09375 37.28125 10.117188 33.8125 12.953125 C 30.351562 15.796875 25.785156 17.21875 20.109375 17.21875 C 10.921875 17.21875 4.988281 14.109375 2.3125 7.890625 Z M 15.375 -21.46875 C 13.9375 -20.050781 13.21875 -18.238281 13.21875 -16.03125 C 13.21875 -13.820312 13.90625 -12.015625 15.28125 -10.609375 C 16.65625 -9.210938 18.472656 -8.515625 20.734375 -8.515625 C 22.898438 -8.515625 24.679688 -9.222656 26.078125 -10.640625 C 27.484375 -12.066406 28.1875 -13.863281 28.1875 -16.03125 C 28.1875 -18.238281 27.460938 -20.050781 26.015625 -21.46875 C 24.578125 -22.894531 22.816406 -23.609375 20.734375 -23.609375 C 18.597656 -23.609375 16.8125 -22.894531 15.375 -21.46875 Z M 15.375 -21.46875 "/></g></g></g><g fill="#000000" fill-opacity="1"><g transform="translate(210.555601, 238.919836)"><g><path d="M 5.640625 -32.125 L 5.640625 -44.09375 L 16.71875 -44.09375 L 16.71875 -32.125 L 23.484375 -32.125 L 23.484375 -23.671875 L 16.71875 -23.671875 L 16.71875 -13.46875 C 16.71875 -10.5 17.550781 -9.015625 19.21875 -9.015625 C 19.644531 -9.015625 20.085938 -9.097656 20.546875 -9.265625 C 21.003906 -9.429688 21.359375 -9.597656 21.609375 -9.765625 L 21.984375 -10.015625 L 24.734375 -1.0625 C 22.359375 0.269531 19.644531 0.9375 16.59375 0.9375 C 14.507812 0.9375 12.710938 0.570312 11.203125 -0.15625 C 9.703125 -0.882812 8.566406 -1.863281 7.796875 -3.09375 C 7.023438 -4.332031 6.472656 -5.628906 6.140625 -6.984375 C 5.804688 -8.335938 5.640625 -9.785156 5.640625 -11.328125 L 5.640625 -23.671875 L 1 -23.671875 L 1 -32.125 Z M 5.640625 -32.125 "/></g></g></g><g fill="#000000" fill-opacity="1"><g transform="translate(229.399903, 238.919836)"><g/></g></g><g fill="#000000" fill-opacity="1"><g transform="translate(240.605617, 238.919836)"><g><path d="M 10.890625 -13.40625 C 12.898438 -13.40625 14.601562 -12.703125 16 -11.296875 C 17.394531 -9.898438 18.09375 -8.203125 18.09375 -6.203125 C 18.09375 -4.234375 17.394531 -2.550781 16 -1.15625 C 14.601562 0.238281 12.898438 0.9375 10.890625 0.9375 C 8.929688 0.9375 7.25 0.238281 5.84375 -1.15625 C 4.445312 -2.550781 3.75 -4.234375 3.75 -6.203125 C 3.75 -8.203125 4.445312 -9.898438 5.84375 -11.296875 C 7.25 -12.703125 8.929688 -13.40625 10.890625 -13.40625 Z M 10.890625 -13.40625 "/></g></g></g><g fill="#000000" fill-opacity="1"><g transform="translate(145.471995, 180.76437)"><g><path d="M 7.578125 -1.5 C 7.804688 -1.5 7.992188 -1.425781 8.140625 -1.28125 C 8.285156 -1.144531 8.359375 -0.96875 8.359375 -0.75 C 8.359375 -0.53125 8.285156 -0.347656 8.140625 -0.203125 C 7.992188 -0.0664062 7.804688 0 7.578125 0 L 2.125 0 C 1.894531 0 1.707031 -0.0703125 1.5625 -0.21875 C 1.414062 -0.375 1.34375 -0.5625 1.34375 -0.78125 L 1.34375 -10.546875 C 1.34375 -10.765625 1.414062 -10.945312 1.5625 -11.09375 C 1.71875 -11.25 1.914062 -11.328125 2.15625 -11.328125 C 2.363281 -11.328125 2.546875 -11.25 2.703125 -11.09375 C 2.859375 -10.945312 2.9375 -10.765625 2.9375 -10.546875 L 2.9375 -1.5 Z M 7.578125 -1.5 "/></g></g></g><g fill="#000000" fill-opacity="1"><g transform="translate(162.679074, 180.76437)"><g><path d="M 2.609375 -0.78125 C 2.609375 -0.5625 2.535156 -0.375 2.390625 -0.21875 C 2.242188 -0.0703125 2.054688 0 1.828125 0 C 1.609375 0 1.425781 -0.0703125 1.28125 -0.21875 C 1.132812 -0.375 1.0625 -0.5625 1.0625 -0.78125 L 1.0625 -7.78125 C 1.0625 -8 1.132812 -8.179688 1.28125 -8.328125 C 1.425781 -8.484375 1.609375 -8.5625 1.828125 -8.5625 C 2.054688 -8.5625 2.242188 -8.484375 2.390625 -8.328125 C 2.535156 -8.179688 2.609375 -8 2.609375 -7.78125 Z M 1.828125 -9.625 C 1.515625 -9.625 1.289062 -9.679688 1.15625 -9.796875 C 1.019531 -9.910156 0.953125 -10.085938 0.953125 -10.328125 L 0.953125 -10.59375 C 0.953125 -10.851562 1.023438 -11.035156 1.171875 -11.140625 C 1.316406 -11.242188 1.539062 -11.296875 1.84375 -11.296875 C 2.144531 -11.296875 2.363281 -11.238281 2.5 -11.125 C 2.632812 -11.019531 2.703125 -10.84375 2.703125 -10.59375 L 2.703125 -10.328125 C 2.703125 -10.078125 2.628906 -9.894531 2.484375 -9.78125 C 2.347656 -9.675781 2.128906 -9.625 1.828125 -9.625 Z M 1.828125 -9.625 "/></g></g></g><g fill="#000000" fill-opacity="1"><g transform="translate(174.664784, 180.76437)"><g><path d="M 6.515625 -1.421875 C 6.722656 -1.421875 6.894531 -1.351562 7.03125 -1.21875 C 7.175781 -1.082031 7.25 -0.914062 7.25 -0.71875 C 7.25 -0.507812 7.175781 -0.335938 7.03125 -0.203125 C 6.894531 -0.0664062 6.722656 0 6.515625 0 L 1.296875 0 C 1.085938 0 0.914062 -0.0703125 0.78125 -0.21875 C 0.644531 -0.375 0.578125 -0.535156 0.578125 -0.703125 C 0.585938 -0.835938 0.609375 -0.953125 0.640625 -1.046875 C 0.679688 -1.140625 0.742188 -1.242188 0.828125 -1.359375 L 5.0625 -7.015625 L 1.546875 -7.015625 C 1.347656 -7.015625 1.175781 -7.082031 1.03125 -7.21875 C 0.894531 -7.363281 0.828125 -7.539062 0.828125 -7.75 C 0.828125 -7.945312 0.894531 -8.109375 1.03125 -8.234375 C 1.164062 -8.367188 1.335938 -8.4375 1.546875 -8.4375 L 6.515625 -8.4375 C 6.722656 -8.4375 6.894531 -8.359375 7.03125 -8.203125 C 7.164062 -8.054688 7.226562 -7.878906 7.21875 -7.671875 C 7.207031 -7.554688 7.1875 -7.457031 7.15625 -7.375 C 7.125 -7.300781 7.066406 -7.210938 6.984375 -7.109375 L 2.71875 -1.421875 Z M 6.515625 -1.421875 "/></g></g></g><g fill="#000000" fill-opacity="1"><g transform="translate(190.772632, 180.76437)"><g><path d="M 6.515625 -1.421875 C 6.722656 -1.421875 6.894531 -1.351562 7.03125 -1.21875 C 7.175781 -1.082031 7.25 -0.914062 7.25 -0.71875 C 7.25 -0.507812 7.175781 -0.335938 7.03125 -0.203125 C 6.894531 -0.0664062 6.722656 0 6.515625 0 L 1.296875 0 C 1.085938 0 0.914062 -0.0703125 0.78125 -0.21875 C 0.644531 -0.375 0.578125 -0.535156 0.578125 -0.703125 C 0.585938 -0.835938 0.609375 -0.953125 0.640625 -1.046875 C 0.679688 -1.140625 0.742188 -1.242188 0.828125 -1.359375 L 5.0625 -7.015625 L 1.546875 -7.015625 C 1.347656 -7.015625 1.175781 -7.082031 1.03125 -7.21875 C 0.894531 -7.363281 0.828125 -7.539062 0.828125 -7.75 C 0.828125 -7.945312 0.894531 -8.109375 1.03125 -8.234375 C 1.164062 -8.367188 1.335938 -8.4375 1.546875 -8.4375 L 6.515625 -8.4375 C 6.722656 -8.4375 6.894531 -8.359375 7.03125 -8.203125 C 7.164062 -8.054688 7.226562 -7.878906 7.21875 -7.671875 C 7.207031 -7.554688 7.1875 -7.457031 7.15625 -7.375 C 7.125 -7.300781 7.066406 -7.210938 6.984375 -7.109375 L 2.71875 -1.421875 Z M 6.515625 -1.421875 "/></g></g></g><g fill="#000000" fill-opacity="1"><g transform="translate(206.880477, 180.76437)"><g><path d="M 7.453125 -8.5625 C 7.679688 -8.5625 7.867188 -8.484375 8.015625 -8.328125 C 8.160156 -8.179688 8.234375 -8 8.234375 -7.78125 L 8.234375 -0.796875 C 8.234375 0.554688 7.859375 1.566406 7.109375 2.234375 C 6.367188 2.898438 5.390625 3.234375 4.171875 3.234375 C 3.773438 3.234375 3.378906 3.195312 2.984375 3.125 C 2.597656 3.050781 2.28125 2.945312 2.03125 2.8125 C 1.632812 2.625 1.4375 2.375 1.4375 2.0625 C 1.4375 2.007812 1.445312 1.941406 1.46875 1.859375 C 1.53125 1.671875 1.617188 1.53125 1.734375 1.4375 C 1.859375 1.34375 2 1.296875 2.15625 1.296875 C 2.238281 1.296875 2.316406 1.3125 2.390625 1.34375 C 2.722656 1.488281 3.019531 1.601562 3.28125 1.6875 C 3.539062 1.78125 3.84375 1.828125 4.1875 1.828125 C 5.851562 1.828125 6.6875 0.96875 6.6875 -0.75 L 6.6875 -1.0625 C 6.40625 -0.675781 6.035156 -0.375 5.578125 -0.15625 C 5.117188 0.0507812 4.59375 0.15625 4 0.15625 C 3.101562 0.15625 2.398438 -0.125 1.890625 -0.6875 C 1.390625 -1.257812 1.140625 -2.007812 1.140625 -2.9375 L 1.140625 -7.78125 C 1.140625 -8.007812 1.207031 -8.195312 1.34375 -8.34375 C 1.488281 -8.488281 1.675781 -8.5625 1.90625 -8.5625 C 2.132812 -8.5625 2.320312 -8.484375 2.46875 -8.328125 C 2.613281 -8.179688 2.6875 -8 2.6875 -7.78125 L 2.6875 -3.34375 C 2.6875 -2.632812 2.84375 -2.109375 3.15625 -1.765625 C 3.46875 -1.429688 3.941406 -1.265625 4.578125 -1.265625 C 5.191406 -1.265625 5.695312 -1.457031 6.09375 -1.84375 C 6.488281 -2.226562 6.6875 -2.726562 6.6875 -3.34375 L 6.6875 -7.78125 C 6.6875 -8.007812 6.753906 -8.195312 6.890625 -8.34375 C 7.035156 -8.488281 7.222656 -8.5625 7.453125 -8.5625 Z M 7.453125 -8.5625 "/></g></g></g><g clip-path="url(#a1052be041)"><path fill="#000000" d="M 290.925781 250.792969 C 291.246094 250.875 295.707031 248.039062 297.570312 246.589844 C 306.554688 239.765625 314.8125 231.308594 318.703125 220.515625 C 325.132812 203.335938 318.144531 182.453125 302.855469 172.398438 C 284.28125 160.449219 271.960938 153.617188 275.296875 128.78125 C 275.578125 126.152344 275.613281 123.503906 275.832031 120.871094 C 275.894531 119.296875 276.015625 117.675781 275.589844 116.136719 C 275.421875 115.574219 274.761719 115.828125 274.375 116.042969 C 267.902344 119.332031 262.660156 124.726562 258.164062 130.328125 C 258.011719 130.59375 257.742188 130.714844 257.4375 130.730469 C 253.78125 130.742188 250.128906 130.679688 246.472656 130.667969 C 245.699219 130.691406 244.878906 130.625 244.378906 129.957031 C 239.382812 124.566406 234.046875 118.65625 227.179688 115.746094 C 226.59375 115.742188 226.601562 116.402344 226.59375 116.847656 C 226.597656 117.808594 226.570312 118.773438 226.632812 119.734375 C 227.003906 125.394531 227.808594 131.011719 228.765625 136.601562 C 229.007812 138.320312 229.347656 138.351562 228.089844 139.570312 C 223.769531 144.140625 220.269531 149.589844 218.765625 155.753906 C 215.839844 166.402344 220.363281 178.066406 231.238281 181.78125 C 240.023438 184.960938 249.484375 182.882812 258.585938 183.257812 C 278.390625 183.542969 290.726562 201.8125 283.660156 220.246094 C 275.8125 237.753906 255.652344 247.738281 237.761719 251.851562 C 226.265625 254.191406 214.203125 253.785156 202.957031 250.390625 C 199.308594 249.324219 195.773438 247.929688 192.339844 246.304688 C 192.289062 246.285156 192.199219 246.359375 192.128906 246.390625 C 217.585938 261.425781 255.289062 263.199219 281.738281 249.695312 C 295.761719 242.671875 307.390625 229.167969 307.832031 212.949219 C 307.972656 211.410156 307.988281 209.878906 307.746094 208.347656 C 307.671875 207.589844 307.164062 204.96875 308.175781 207.359375 C 312.46875 219.960938 307.808594 234.117188 298.847656 243.519531 C 296.605469 246.011719 290.941406 250.511719 290.925781 250.792969 Z M 251.90625 147.222656 C 252.382812 147.238281 252.792969 147.113281 252.695312 147.589844 C 252.214844 148.484375 251.554688 149.257812 250.894531 150.007812 C 248.96875 152.242188 248.371094 152.558594 245.695312 153.402344 C 237.632812 155.699219 230.257812 160.21875 227.035156 168.277344 C 228.59375 155.425781 239.738281 148.328125 251.90625 147.222656 Z M 251.90625 147.222656 " fill-opacity="1" fill-rule="nonzero"/></g><g clip-path="url(#46e67e4296)"><path fill="#000000" d="M 190.929688 148.933594 C 196.339844 155.402344 202.070312 160.539062 210.480469 162.160156 C 210.894531 162.261719 212.375 162.515625 213.042969 162.570312 C 204.59375 160.148438 197.101562 155.089844 190.929688 148.933594 " fill-opacity="1" fill-rule="nonzero"/></g><path fill="#000000" d="M 191.871094 158.914062 C 197.371094 163.699219 204.175781 166.742188 211.417969 167.511719 C 211.417969 167.5 212.195312 167.601562 212.566406 167.523438 C 205.265625 166.015625 198.089844 163.183594 191.871094 158.914062 " fill-opacity="1" fill-rule="nonzero"/></svg>